<?xml version="1.0" standalone="no"?><!DOCTYPE svg PUBLIC "-//W3C//DTD SVG 1.1//EN" "http://www.w3.org/Graphics/SVG/1.1/DTD/svg11.dtd"><svg t="1509728028328" class="icon" style="" viewBox="0 0 1024 1024" version="1.1" xmlns="http://www.w3.org/2000/svg" p-id="5547" xmlns:xlink="http://www.w3.org/1999/xlink" width="64" height="64"><defs><style type="text/css"></style></defs><path d="M510.64650752 4.15079879C230.93509917 4.15079879 4.18630883 230.89958798 4.18630883 510.60983125c0 279.70092942 226.74879033 506.44971861 506.46019755 506.44971862s506.46019755-226.74879033 506.46019755-506.44971862C1017.10670507 230.89958798 790.35791474 4.15079879 510.64650752 4.15079879L510.64650752 4.15079879 510.64650752 4.15079879zM815.68831829 369.00128199L465.2436571 727.02550357c-1.2015525 1.79650674-2.53001273 3.50336341-4.09366187 5.09146226-13.73751751 13.94941952-36.00466034 13.94941952-49.74683477 0l-174.07957447-176.75163193c-13.72587463-13.95524039-13.72587463-36.55653603 0-50.47684779 13.73053155-13.95058347 36.00466034-13.95058347 49.7351919 0l148.69095651 150.93688207 330.18709106-337.33935559c13.74683136-13.94825443 36.00349639-13.94825443 49.74567083 0 13.72587463 13.95407645 13.72587463 36.56119296 0 50.51643335L815.68831829 369.00244594 815.68831829 369.00128199zM815.68831829 369.00128199" fill="#00a854" p-id="5548"></path></svg>