<?xml version="1.0" standalone="no"?><!DOCTYPE svg PUBLIC "-//W3C//DTD SVG 1.1//EN" "http://www.w3.org/Graphics/SVG/1.1/DTD/svg11.dtd"><svg t="1509783330323" class="icon" style="" viewBox="0 0 1024 1024" version="1.1" xmlns="http://www.w3.org/2000/svg" p-id="5531" xmlns:xlink="http://www.w3.org/1999/xlink" width="64" height="64"><defs><style type="text/css"></style></defs><path d="M819.22402012 879.99201572C835.99515272 896.76314445 863.18652725 896.76314445 879.95765985 879.99201572 896.72878858 863.22088391 896.72878858 836.02950859 879.95765985 819.258376L189.84749269 129.1482104C173.07636164 112.37707933 145.88498556 112.37707933 129.11385451 129.1482104 112.34272347 145.91934145 112.34272347 173.11071753 129.11385451 189.88184858L819.22402012 879.99201572Z" fill="#f04134" p-id="5532"></path><path d="M129.11385451 819.258376C112.34272347 836.02950859 112.34272347 863.22088391 129.11385451 879.99201572 145.88498556 896.76314445 173.07636164 896.76314445 189.84749269 879.99201572L879.95765985 189.88184858C896.72878858 173.11071753 896.72878858 145.91934145 879.95765985 129.1482104 863.18652725 112.37707933 835.99515272 112.37707933 819.22402012 129.1482104L129.11385451 819.258376Z" fill="#f04134" p-id="5533"></path></svg>