<?xml version="1.0" standalone="no"?><!DOCTYPE svg PUBLIC "-//W3C//DTD SVG 1.1//EN" "http://www.w3.org/Graphics/SVG/1.1/DTD/svg11.dtd"><svg t="1504852408630" class="icon" style="" viewBox="0 0 1024 1024" version="1.1" xmlns="http://www.w3.org/2000/svg" p-id="16617" xmlns:xlink="http://www.w3.org/1999/xlink" width="64" height="64"><defs><style type="text/css"></style></defs><path d="M870.4 512c0-14.13888-11.46368-25.6-25.6-25.6s-25.6 11.46112-25.6 25.6c0 169.39008-137.8048 307.2-307.18976 307.2C342.61248 819.2 204.8 681.39008 204.8 512c0-14.13888-11.46112-25.6-25.6-25.6s-25.6 11.46112-25.6 25.6c0 189.02784 147.10528 344.32512 332.84608 357.4784-0.01024 0.30976-0.04608 0.61184-0.04608 0.9216l0 128c0 14.13632 11.46112 25.6 25.6 25.6 14.13632 0 25.6-11.46368 25.6-25.6l0-128c0-0.30976-0.03584-0.61184-0.04864-0.91904C723.29472 856.33536 870.4 701.03296 870.4 512zM512 742.4c127.25248 0 230.4-103.15008 230.4-230.4L742.4 230.4c0-127.24992-103.15008-230.4-230.4-230.4-127.24992 0-230.4 103.15008-230.4 230.4l0 281.6C281.6 639.24992 384.75008 742.4 512 742.4zM332.8 230.4c0-98.81088 80.38912-179.2 179.2-179.2 98.81088 0 179.2 80.38912 179.2 179.2l0 281.6c0 98.81344-80.38912 179.2-179.2 179.2-98.81088 0-179.2-80.38656-179.2-179.2L332.8 230.4z"  p-id="16618"></path></svg>